# xmcd
#
# Track frame offsets:
#	150
#	16418
#	29354
#	42455
#	52120
#	74448
#	94156
#	107305
#	120162
#	137751
#	153385
#	173897
#
# Disc length: 2503 seconds
#
# Revision: 1
# Processed by: cddbd v1.5.2PL0 Copyright (c) Steve Scherf et al.
# Submitted via: audiograbber 1.83.01
#
DISCID=9b09c50c
DTITLE=Claudia Woloszyn - Handstand
DYEAR=1900
DGENRE=Deutsch
TTITLE0=Handstand
TTITLE1=Als du gingst
TTITLE2=Frau Neumann
TTITLE3=Feiertagsliebe
TTITLE4=Werd dich sehn
TTITLE5=Mama
TTITLE6=War dein Duft
TTITLE7=Die dreizehnte Fee
TTITLE8=Bäume
TTITLE9=Schnecke
TTITLE10=Herbst 2050
TTITLE11=Nimm mich mit 2014
EXTD=
EXTT0=
EXTT1=
EXTT2=
EXTT3=
EXTT4=
EXTT5=
EXTT6=
EXTT7=
EXTT8=
EXTT9=
EXTT10=
EXTT11=
PLAYORDER=
